<svg fill="none" height="32" viewBox="0 0 32 32" width="32" xmlns="http://www.w3.org/2000/svg">

    <path
        d="M12 12.1516V11.2894C12 9.28942 13.6089 7.32497 15.6089 7.13831C16.1646 7.08371 16.7256 7.14607 17.2558 7.32136C17.7859 7.49666 18.2735 7.78102 18.6872 8.15613C19.1008 8.53124 19.4313 8.98879 19.6574 9.49935C19.8835 10.0099 20.0002 10.5621 20 11.1205V12.3472M8.72005 20.0539L8.92449 21.7161C9.12005 23.4583 9.76005 24.8894 13.3334 24.8894H18.6667C22.24 24.8894 22.88 23.4583 23.0667 21.7161L23.7334 16.3828C23.9734 14.2139 23.3512 12.445 19.5556 12.445H12.4445C8.64894 12.445 8.02672 14.2139 8.26672 16.3828"
        stroke="white" stroke-linecap="round" stroke-linejoin="round" stroke-miterlimit="10"
        stroke-width="1.5" />
    <path d="M19.1067 16H19.1147M12.8845 16H12.8916" stroke="white" stroke-linecap="round"
        stroke-linejoin="round" stroke-width="2" />
</svg>
