<svg width="24" height="24" viewBox="0 0 24 24" fill="none" xmlns="http://www.w3.org/2000/svg">
<path d="M7.49995 7.66986V6.69986C7.49995 4.44986 9.30995 2.23986 11.5599 2.02986C12.1851 1.96844 12.8162 2.03859 13.4127 2.2358C14.0091 2.43301 14.5576 2.75291 15.0229 3.17491C15.4883 3.59691 15.8601 4.11166 16.1145 4.68603C16.3689 5.26041 16.5002 5.88168 16.4999 6.50986V7.88986M3.80995 16.5599L4.03995 18.4299C4.25995 20.3899 4.97995 21.9999 8.99995 21.9999H14.9999C19.0199 21.9999 19.7399 20.3899 19.9499 18.4299L20.6999 12.4299C20.9699 9.98986 20.2699 7.99986 15.9999 7.99986H7.99995C3.72995 7.99986 3.02995 9.98986 3.29995 12.4299" stroke="#2B2A29" stroke-width="1.5" stroke-miterlimit="10" stroke-linecap="round" stroke-linejoin="round"/>
<path d="M15.495 12H15.504M8.495 12H8.503" stroke="#2B2A29" stroke-width="2" stroke-linecap="round" stroke-linejoin="round"/>
</svg>
