<svg fill="none" height="30" viewBox="0 0 30 30" width="30" xmlns="http://www.w3.org/2000/svg">

    <g clip-path="url(#clip0_34_481)">
        <path
            d="M18.3335 15.9332V17.9332C18.3335 20.5998 17.2668 21.6665 14.6002 21.6665H12.0668C9.40016 21.6665 8.3335 20.5998 8.3335 17.9332V15.3998C8.3335 12.7332 9.40016 11.6665 12.0668 11.6665H14.0668"
            stroke="white" stroke-linecap="round" stroke-linejoin="round" />
        <path
            d="M14.7332 8.3335H17.3998M11.6665 10.3335C11.6665 9.22683 12.5598 8.3335 13.6665 8.3335H15.4132M21.6665 12.3335V16.4602C21.6665 17.4935 20.8265 18.3335 19.7932 18.3335M21.6665 12.3335H19.6665C18.1665 12.3335 17.6665 11.8335 17.6665 10.3335V8.3335L21.6665 12.3335ZM18.3332 15.9335H16.1998C14.5998 15.9335 14.0665 15.4002 14.0665 13.8002V11.6668L18.3332 15.9335Z"
            stroke="white" stroke-linecap="round" stroke-linejoin="round" />
    </g>
    <defs>
        <clipPath id="clip0_34_481">
            <rect fill="white" height="16" transform="translate(7 7)" width="16" />
        </clipPath>
    </defs>
</svg>
