<svg width="24" height="24" viewBox="0 0 24 24" fill="none" xmlns="http://www.w3.org/2000/svg">
<g opacity="0.6">
<path d="M16.9799 10.0209L19.4999 7.50092C20.3299 6.67092 20.3299 5.33092 19.4999 4.50092C18.6699 3.67092 17.3299 3.67092 16.4999 4.50092L3.49994 17.5009C2.66994 18.3309 2.66994 19.6709 3.49994 20.5009C4.32994 21.3309 5.66994 21.3309 6.49994 20.5009L14.4999 12.5009M18.0099 8.98792L15.0099 5.98792" stroke="white" stroke-width="1.5" stroke-linecap="round" stroke-linejoin="round"/>
<path d="M9.56 3.5L10 5L8.5 4.56L7 5L7.44 3.5L7 2L8.5 2.44M18.44 14.5L18 13L19.5 13.44L21 13L20.56 14.5L21 16L19.5 15.56M4.5 8.44L6 8L5.56 9.5L6 11L4.5 10.56L3 11L3.44 9.5L3 8L4.5 8.44Z" stroke="white" stroke-linecap="round" stroke-linejoin="round"/>
</g>
</svg>
