<svg width="60" height="60" viewBox="0 0 60 60" fill="none" xmlns="http://www.w3.org/2000/svg">
<path d="M14.5833 2.25H8.41667C6.78116 2.25 5.21265 2.8997 4.05617 4.05617C2.8997 5.21265 2.25 6.78116 2.25 8.41667V14.5833M45.4167 2.25H51.5833C53.2188 2.25 54.7873 2.8997 55.9438 4.05617C57.1003 5.21265 57.75 6.78116 57.75 8.41667V14.5833M42.3333 17.6667V23.8333M17.6667 17.6667V23.8333M20.75 42.3333C20.75 42.3333 23.8333 45.4167 30 45.4167C36.1667 45.4167 39.25 42.3333 39.25 42.3333M30 17.6667V33.0833H26.9167M14.5833 57.75H8.41667C6.78116 57.75 5.21265 57.1003 4.05617 55.9438C2.8997 54.7873 2.25 53.2188 2.25 51.5833V45.4167M45.4167 57.75H51.5833C53.2188 57.75 54.7873 57.1003 55.9438 55.9438C57.1003 54.7873 57.75 53.2188 57.75 51.5833V45.4167" stroke="#2B2A29" stroke-width="4" stroke-linecap="round" stroke-linejoin="round"/>
</svg>
