<svg width="61" height="68" viewBox="0 0 61 68" fill="none" xmlns="http://www.w3.org/2000/svg">
<path d="M2.87521 25.8148L4.5892 26.8548L5.60844 24.9717C7.90623 21.1235 14.9383 12.1445 30.5 12.1445C46.4473 12.1445 53.2422 21.8959 55.4748 25.1048L56.6064 26.8659L60.1592 24.625L58.9749 22.7723C57.7435 20.9904 55.1587 17.2906 50.5464 14.0221C44.9427 10.0395 38.1963 8.01904 30.5 8.01904C12.7403 8.01904 4.61139 18.4347 1.93363 22.8916L0.911621 24.625L2.48832 25.5763C2.56002 25.6323 2.63555 25.6833 2.71436 25.7288C2.76644 25.7603 2.82013 25.789 2.87521 25.8148Z" fill="#2B2A29"/>
<path d="M47.5871 21.896C42.6587 17.8842 36.7541 15.7598 30.5 15.7598C16.9767 15.7598 7.99215 24.9121 5.07727 33.991C2.40783 42.3751 5.65275 54.5241 5.78865 55.0441L6.39603 56.9592L10.5465 56.0675L9.88918 53.9874C9.86006 53.8834 6.82453 42.4874 9.13896 35.2376C10.387 31.3437 12.9843 27.5552 16.2598 24.8663C20.2119 21.6284 25.1403 19.9102 30.5 19.9102C43.0609 19.9102 50.1817 29.7018 52.1952 34.902C53.758 38.9138 53.3975 43.4747 51.3243 46.2731C50.5575 47.2979 49.2054 48.5016 47.1475 48.3976C42.459 48.1591 41.6478 45.8419 40.5204 41.4293C39.9796 39.3049 39.4249 37.1055 38.0423 35.3278C36.3589 33.1437 33.9099 32.0884 30.5152 32.0884C26.864 32.0884 24.0989 33.2921 22.2809 35.655C18.3149 40.8247 20.8942 49.6512 21.0037 50.0228L21.0342 50.1407C21.2298 50.676 26.0375 63.5433 38.9132 66.7369L40.9614 67.1821L42.0832 63.2008L39.9657 62.7252C29.6735 60.1694 25.3761 49.6359 25.046 48.8039C24.674 47.4537 24.4371 46.0699 24.3388 44.6729C24.189 42.6677 24.2944 39.9039 25.6465 38.1359C26.638 36.8434 28.2313 36.2194 30.5 36.2194C34.631 36.2194 35.323 38.2399 36.4046 42.4305C37.4558 46.5158 38.9007 52.1168 46.9215 52.5189C50.0014 52.6673 52.7818 51.3 54.7343 48.6846C57.6644 44.763 58.2205 38.7599 56.1474 33.4113C54.5277 29.2012 51.4034 25.0161 47.5871 21.896Z" fill="#2B2A29"/>
<path d="M16.3804 45.5936C15.8992 41.6719 16.576 35.7479 20.0622 31.8956C22.4806 29.2206 25.9959 27.8741 30.4889 27.8741C35.6877 27.8741 39.6232 30.1927 42.2081 34.7536C43.4803 37.0422 44.3207 39.5453 44.6875 42.1379L44.8858 44.175L49.046 43.8699C49.0499 43.1464 49.0036 42.4236 48.9073 41.7066C48.892 41.5291 48.4122 37.2053 45.9952 32.8663C42.6587 26.8881 37.3102 23.7236 30.5 23.7236C24.7451 23.7236 20.162 25.5513 16.9018 29.1471C12.4851 34.02 11.5838 41.1075 12.1995 46.1136V46.1594C13.3047 53.7211 16.2168 59.7686 21.3685 65.1768L22.9771 66.7327L25.8822 63.7111L24.4484 62.3535C19.911 57.5998 17.3414 52.2803 16.3804 45.5936ZM13.3699 8.0759C14.9063 7.14402 20.3409 4.36365 30.5 4.36365C42.6393 4.36365 48.0337 8.34631 48.0933 8.37543L50.0208 9.60406L52.2715 6.10814L50.4382 4.92111C50.3661 4.86842 50.2912 4.81572 50.2164 4.7658C48.458 3.62176 42.2233 0.21875 30.5 0.21875C18.3371 0.21875 12.0913 3.89078 10.6131 4.89338L8.72852 6.11508L10.975 9.611L13.3699 8.0759Z" fill="#2B2A29"/>
<path d="M49.1639 55.5779C44.5364 56.0979 40.7811 55.2077 37.9717 52.9639C33.2235 49.1602 32.6078 42.5483 32.5926 42.4249L32.422 40.3615L28.1884 40.6707L28.37 42.7508C28.4005 43.0919 29.0911 51.1751 35.2509 56.1381C38.3169 58.619 42.1485 59.867 46.6553 59.867C47.6545 59.8651 48.6527 59.8053 49.6451 59.6881L51.9456 59.3983L51.0997 55.2784L49.1639 55.5779Z" fill="#2B2A29"/>
</svg>
