<svg fill="none" height="32" viewBox="0 0 32 32" width="32" xmlns="http://www.w3.org/2000/svg">

    <path
        d="M20.4445 21.7164H16.889L12.9334 24.3475C12.7999 24.4365 12.6448 24.4875 12.4845 24.4953C12.3243 24.503 12.165 24.4671 12.0235 24.3913C11.8821 24.3156 11.7639 24.2029 11.6815 24.0652C11.5991 23.9276 11.5556 23.7701 11.5557 23.6097V21.7164C8.88898 21.7164 7.11121 19.9386 7.11121 17.2719V11.9386C7.11121 9.27192 8.88898 7.49414 11.5557 7.49414H20.4445C23.1112 7.49414 24.889 9.27192 24.889 11.9386V17.2719C24.889 19.9386 23.1112 21.7164 20.4445 21.7164Z"
        stroke="white" stroke-linecap="round" stroke-linejoin="round" stroke-miterlimit="10"
        stroke-width="1.5" />
    <path
        d="M16.0001 15.4316V15.245C16.0001 14.6405 16.3734 14.3205 16.7468 14.0628C17.1112 13.8139 17.4756 13.4939 17.4756 12.9072C17.4756 12.0894 16.8179 11.4316 16.0001 11.4316C15.1823 11.4316 14.5245 12.0894 14.5245 12.9072M15.9956 17.5561H16.0045"
        stroke="white" stroke-linecap="round" stroke-linejoin="round" stroke-width="1.5" />
</svg>
