<svg version="1.1" id="Layer_1" xmlns="http://www.w3.org/2000/svg" xmlns:xlink="http://www.w3.org/1999/xlink" x="0px" y="0px"
	 width="100%" viewBox="0 0 295 295" enable-background="new 0 0 295 295" xml:space="preserve">
<path fill="#000000" opacity="0" stroke="none" 
	d="
M295.660339,226.767731 
	C296.000000,248.991608 295.957092,270.983429 296.060547,292.974548 
	C296.072021,295.410248 295.590790,296.069519 293.027405,296.067413 
	C196.730896,295.987579 100.434258,295.980652 4.137791,296.089905 
	C1.128224,296.093323 0.938392,295.181213 0.940261,292.640137 
	C1.010939,196.510193 1.015118,100.380180 0.924042,4.250277 
	C0.921419,1.481756 1.472762,0.921005 4.247389,0.923649 
	C100.377281,1.015232 196.507309,1.026362 292.637115,0.890494 
	C296.005432,0.885733 296.051453,2.029598 296.048828,4.634658 
	C295.986176,67.443954 296.000000,130.253326 296.000000,193.531342 
	C292.554535,195.206909 292.146790,192.099716 291.216949,190.310074 
	C288.037018,184.189667 284.107361,178.725830 279.039185,174.002213 
	C269.003662,164.648911 256.588898,162.172577 243.563812,161.461639 
	C238.412918,161.180466 233.238663,161.479630 228.078491,161.375351 
	C224.648605,161.306046 223.284454,162.813354 223.369507,166.181961 
	C223.482925,170.675171 223.498260,175.177658 223.366470,179.669800 
	C223.257706,183.377518 224.987411,184.685226 228.511063,184.631760 
	C234.504562,184.540833 240.506668,184.763931 246.495880,184.587280 
	C262.256439,184.122391 272.668549,198.917816 272.414246,210.225418 
	C272.104919,223.980804 260.870544,235.115921 246.556076,235.366501 
	C240.561935,235.471420 234.561768,235.508484 228.571167,235.350983 
	C224.651001,235.247894 223.196411,236.906525 223.353165,240.716293 
	C223.530991,245.038773 223.479813,249.377197 223.367920,253.703888 
	C223.283005,256.986847 224.453140,258.639893 227.963547,258.626312 
	C237.451355,258.589569 246.981598,259.092163 256.355652,257.287537 
	C272.022522,254.271408 282.801025,244.748947 290.397339,231.122971 
	C291.515381,229.117447 291.714661,225.943100 295.660339,226.767731 
z"/>
<path fill="#FFFFFF" opacity="1.000000" stroke="none" 
	d="
M296.000000,226.531342 
	C294.126770,226.354431 293.696350,227.105103 292.866486,228.943954 
	C285.822998,244.551590 274.042969,255.062958 257.255157,258.718140 
	C246.423477,261.076508 235.179337,259.941650 224.106415,260.030060 
	C222.213165,260.045166 221.968994,259.152863 221.979874,257.598907 
	C222.028702,250.608658 222.097107,243.615799 221.946793,236.628433 
	C221.895996,234.267548 222.874634,233.939316 224.878906,233.963730 
	C232.367722,234.055023 239.863632,233.820786 247.346954,234.042999 
	C257.963501,234.358231 266.281189,226.190002 269.351654,218.982101 
	C272.838287,210.797256 271.274261,200.943512 264.133789,193.475296 
	C258.993164,188.098724 253.074524,185.835373 245.852753,185.972229 
	C239.031052,186.101501 232.203583,185.921600 225.381577,186.042496 
	C223.002228,186.084641 221.821915,185.749298 221.924683,182.873734 
	C222.162308,176.224518 222.001877,169.561020 221.998962,162.903305 
	C221.998306,161.421417 221.677597,159.930008 224.103653,159.967758 
	C237.518494,160.176590 251.052628,159.027283 264.071747,163.545624 
	C276.594971,167.891861 285.420654,176.406738 291.538879,187.991760 
	C292.723358,190.234634 293.265472,192.876587 295.692261,194.290115 
	C296.000000,204.687561 296.000000,215.375122 296.000000,226.531342 
z"/>
<path fill="#FFFFFF" opacity="1.000000" stroke="none" 
	d="
M39.004200,230.620728 
	C37.910610,228.433350 37.985443,226.482635 37.986019,224.508881 
	C38.003231,165.857269 37.988361,107.205658 38.010471,48.554062 
	C38.014568,37.688362 47.127785,27.800699 58.722557,25.862743 
	C65.179138,24.783588 71.559959,25.051319 77.969246,25.041876 
	C128.956039,24.966749 179.943100,24.948288 230.929779,25.059086 
	C238.085754,25.074636 245.078033,26.281914 250.830917,31.290617 
	C257.297577,36.920750 259.911285,44.252312 259.951050,52.486835 
	C260.081360,79.479279 259.966400,106.472824 260.040100,133.465698 
	C260.049957,137.072098 260.104462,138.654404 255.239563,137.417923 
	C250.071289,136.104324 244.318207,136.805649 238.843552,137.082718 
	C235.106216,137.271851 233.855652,136.410812 233.890167,132.328278 
	C234.107193,106.670044 233.934433,81.008682 234.079712,55.349434 
	C234.098709,51.994926 233.483658,50.899670 229.838333,50.908581 
	C175.685913,51.041016 121.532883,51.053539 67.380608,50.890327 
	C63.390194,50.878300 62.918224,52.153717 62.925121,55.630165 
	C63.032215,109.616089 63.051117,163.602448 62.893982,217.588120 
	C62.882553,221.514008 64.047821,222.177002 67.600922,222.085449 
	C77.258690,221.836609 86.928772,222.103104 96.590370,221.945053 
	C100.056206,221.888351 101.745163,222.288666 102.238586,226.595032 
	C102.906860,232.427429 105.126518,238.113678 108.100655,243.310562 
	C109.641731,246.003372 109.413666,247.056305 106.028702,247.037781 
	C90.366524,246.952057 74.684868,247.463867 59.047775,246.831802 
	C49.134060,246.431076 43.283211,239.383621 39.004200,230.620728 
z"/>
<path fill="#FFFFFF" opacity="1.000000" stroke="none" 
	d="
M198.000000,178.931854 
	C197.999374,185.999832 197.999374,185.999878 191.572220,185.999969 
	C185.409607,186.000046 179.246674,186.041382 173.084473,185.990891 
	C162.193039,185.901642 153.709564,193.086502 150.246796,202.551849 
	C146.674713,212.316025 151.090256,224.032410 159.818054,230.013306 
	C163.979889,232.865265 168.473587,234.088394 173.468094,234.023666 
	C180.628845,233.930878 187.793442,234.089676 194.952637,233.949112 
	C197.295166,233.903122 198.119293,234.494690 198.057129,236.963928 
	C197.889481,243.621994 198.017761,250.287140 197.984970,256.949280 
	C197.978241,258.315063 198.568878,260.034851 196.041031,260.022034 
	C181.801682,259.949799 167.072510,261.762390 153.814987,255.690170 
	C138.986420,248.898376 128.194855,237.732483 124.975281,220.768631 
	C122.248413,206.400833 124.030396,192.889038 133.058777,181.091110 
	C141.994156,169.414734 153.385803,162.025620 168.691177,160.802429 
	C177.300659,160.114349 185.865768,160.370590 194.439270,159.950592 
	C197.192627,159.815689 198.211349,160.530991 198.067535,163.453217 
	C197.822250,168.437866 197.999969,173.443344 198.000000,178.931854 
z"/>
<path fill="#FFFFFF" opacity="1.000000" stroke="none" 
	d="
M104.001434,75.000000 
	C114.165482,75.000023 123.831642,75.107086 133.492767,74.933578 
	C136.319885,74.882812 137.093719,75.679649 137.065598,78.505447 
	C136.923019,92.833755 136.923203,107.165016 137.065506,121.493332 
	C137.093552,124.317238 136.320282,125.093704 133.494522,125.065582 
	C119.166214,124.923012 104.834953,124.923164 90.506638,125.065491 
	C87.682693,125.093544 86.906303,124.320221 86.934418,121.494499 
	C87.076981,107.166191 87.076836,92.834930 86.934509,78.506615 
	C86.906456,75.682625 87.669144,74.782387 90.508278,74.938072 
	C94.827530,75.174927 99.169373,75.000023 104.001434,75.000000 
z"/>
<path fill="#FFFFFF" opacity="1.000000" stroke="none" 
	d="
M211.000000,115.912643 
	C211.000000,117.232216 210.894073,118.081337 211.017471,118.895706 
	C211.729767,123.596138 210.029205,125.248062 205.050064,125.119431 
	C191.563354,124.770988 178.061020,124.927231 164.566620,125.060684 
	C161.833221,125.087715 160.897934,124.475616 160.929596,121.554848 
	C161.084930,107.227753 161.068604,92.897438 160.939743,78.569817 
	C160.915207,75.841492 161.515900,74.897491 164.441895,74.929352 
	C178.768982,75.085365 193.100723,75.130363 207.425964,74.904854 
	C210.840332,74.851097 211.081650,76.185417 211.053589,78.938263 
	C210.929596,91.099800 211.000000,103.263329 211.000000,115.912643 
z"/>
<path fill="#FFFFFF" opacity="1.000000" stroke="none" 
	d="
M237.962280,223.000000 
	C217.303955,223.000000 197.140900,222.917404 176.979843,223.082275 
	C173.667038,223.109344 172.793716,222.189819 172.924606,218.965225 
	C173.181213,212.643661 173.112930,206.301285 172.943527,199.973846 
	C172.877731,197.516098 173.688034,196.942261 176.039154,196.950806 
	C198.700714,197.033218 221.362854,197.037704 244.024353,196.946121 
	C246.469772,196.936249 247.113174,197.674683 247.051651,200.037216 
	C246.895584,206.031891 246.686646,212.055328 247.105820,218.024628 
	C247.404770,222.281677 246.049347,223.737335 241.952362,223.029785 
	C240.819717,222.834183 239.624649,223.000000 237.962280,223.000000 
z"/>
<path fill="#FFFFFF" opacity="1.000000" stroke="none" 
	d="
M103.212158,188.458160 
	C102.673660,191.237976 102.380630,193.652145 101.936409,196.038162 
	C101.748116,197.049545 101.025612,197.794922 99.926598,197.966431 
	C99.438210,198.042633 98.928452,197.968735 98.431160,198.002991 
	C86.999931,198.790573 86.999985,198.791611 87.000000,187.452332 
	C87.000008,175.470459 87.088737,163.487427 86.934502,151.507538 
	C86.898277,148.693344 87.665359,147.891159 90.496948,147.933411 
	C101.477890,148.097214 112.467438,148.186478 123.443817,147.909210 
	C127.897858,147.796677 127.455742,150.109314 126.652840,152.800217 
	C125.976738,155.066132 124.074059,156.561417 122.387184,158.095703 
	C113.305069,166.356262 107.360596,176.587708 103.212158,188.458160 
z"/>
</svg>