<svg width="32" height="32" viewBox="0 0 32 32" fill="none" xmlns="http://www.w3.org/2000/svg">
<path d="M24.482 19.5857L22.3888 21.6788C22.2507 21.8169 22.0694 21.8863 21.888 21.8863C21.7067 21.8863 21.5253 21.8169 21.3872 21.6788C21.1102 21.4018 21.1102 20.9542 21.3872 20.6772L23.0228 19.0417H20.3969C19.4201 19.0417 18.626 19.8357 18.626 20.8125V23.2917C18.626 23.6834 18.3094 24 17.9177 24C17.526 24 17.2093 23.6834 17.2093 23.2917V20.8125C17.2093 19.0551 18.6395 17.625 20.3969 17.625H23.0228L21.3985 16.0008C21.1216 15.7238 21.1216 15.2762 21.3985 14.9992C21.6755 14.7222 22.1232 14.7222 22.4002 14.9992L24.482 17.081C25.1727 17.7716 25.1727 18.8957 24.482 19.5857ZM17.917 11.25C17.917 13.5939 16.0108 15.5 13.6668 15.5C11.3229 15.5 9.41671 13.5939 9.41671 11.25C9.41671 8.90612 11.3229 7 13.6668 7C16.0108 7 17.917 8.90612 17.917 11.25ZM16.5003 11.25C16.5003 9.68742 15.2295 8.41667 13.6668 8.41667C12.1042 8.41667 10.8334 9.68742 10.8334 11.25C10.8334 12.8126 12.1042 14.0833 13.6668 14.0833C15.2295 14.0833 16.5003 12.8126 16.5003 11.25ZM15.9676 17.1171C15.4491 16.984 14.9128 16.9167 14.3752 16.9167C10.8596 16.9167 8 19.7762 8 23.2917C8 23.6834 8.31663 24 8.70836 24C9.10008 24 9.41671 23.6834 9.41671 23.2917C9.41671 20.5582 11.6417 18.3333 14.3752 18.3333C14.7945 18.3333 15.2118 18.3857 15.6162 18.4899C15.991 18.5883 16.3806 18.3588 16.4783 17.9792C16.5754 17.6009 16.3466 17.2149 15.9676 17.1171Z" fill="white"/>
</svg>
