<svg width="22" height="22" xmlns="http://www.w3.org/2000/svg">
  <mask id="m" style="m-t:a" mU="uSOU" x="0" y="0" w="22" h="22">
    <rect width="21.33" height="21.33" fill="#D9D9D9"/>
  </mask>
  <g mask="u(#m)">
    <path d="M9.7763 15.9976H11.5538V15.1088H12.4426C12.6944 15.1088 12.9054 15.0237 13.0758 14.8533C13.2461 14.683 13.3313 14.4719 13.3313 14.2201V11.5538C13.3313 11.302 13.2461 11.0909 13.0758 10.9206C12.9054 10.7503 12.6944 10.6651 12.4426 10.6651H9.7763V9.77634H13.3313V7.99884H11.5538V7.11009H9.7763V7.99884H8.88755C8.63574 7.99884 8.42466 8.08401 8.25432 8.25435C8.08398 8.4247 7.9988 8.63578 7.9988 8.88759V11.5538C7.9988 11.8056 8.08398 12.0167 8.25432 12.1871C8.42466 12.3574 8.63574 12.4426 8.88755 12.4426H11.5538V13.3313H7.9988V15.1088H9.7763V15.9976ZM5.33255 19.5526C4.84374 19.5526 4.42529 19.3785 4.07719 19.0304C3.7291 18.6824 3.55505 18.2639 3.55505 17.7751V3.55509C3.55505 3.06628 3.7291 2.64782 4.07719 2.29973C4.42529 1.95163 4.84374 1.77759 5.33255 1.77759H12.4426L17.7751 7.11009V17.7751C17.7751 18.2639 17.601 18.6824 17.2529 19.0304C16.9048 19.3785 16.4864 19.5526 15.9976 19.5526H5.33255ZM5.33255 17.7751H15.9976V7.86553L11.6871 3.55509H5.33255V17.7751Z" fill="white"/>
  </g>
</svg>
