<svg width="32" height="32" viewBox="0 0 32 32" fill="none" xmlns="http://www.w3.org/2000/svg">
<rect width="32" height="32" rx="7" fill="0"/>
<mask id="mask0_1301_2" style="mask-type:alpha" maskUnits="userSpaceOnUse" x="5" y="5" width="22" height="22">
<rect x="5" y="5" width="21.33" height="21.33" fill="#D9D9D9"/>
</mask>
<g mask="url(#mask0_1301_2)">
<path d="M14.7763 20.9976H16.5538V20.1088H17.4426C17.6944 20.1088 17.9054 20.0237 18.0758 19.8533C18.2461 19.683 18.3313 19.4719 18.3313 19.2201V16.5538C18.3313 16.302 18.2461 16.0909 18.0758 15.9206C17.9054 15.7503 17.6944 15.6651 17.4426 15.6651H14.7763V14.7763H18.3313V12.9988H16.5538V12.1101H14.7763V12.9988H13.8876C13.6357 12.9988 13.4247 13.084 13.2543 13.2544C13.084 13.4247 12.9988 13.6358 12.9988 13.8876V16.5538C12.9988 16.8056 13.084 17.0167 13.2543 17.1871C13.4247 17.3574 13.6357 17.4426 13.8876 17.4426H16.5538V18.3313H12.9988V20.1088H14.7763V20.9976ZM10.3326 24.5526C9.84374 24.5526 9.42529 24.3785 9.07719 24.0304C8.7291 23.6824 8.55505 23.2639 8.55505 22.7751V8.55509C8.55505 8.06628 8.7291 7.64782 9.07719 7.29973C9.42529 6.95163 9.84374 6.77759 10.3326 6.77759H17.4426L22.7751 12.1101V22.7751C22.7751 23.2639 22.601 23.6824 22.2529 24.0304C21.9048 24.3785 21.4864 24.5526 20.9976 24.5526H10.3326ZM10.3326 22.7751H20.9976V12.8655L16.6871 8.55509H10.3326V22.7751Z" fill="white"/>
</g>
</svg>
