<svg width="32" height="32" viewBox="0 0 32 32" fill="none" xmlns="http://www.w3.org/2000/svg">
<path d="M2.66663 11.9998V8.6665C2.66663 5.3465 5.34663 2.6665 8.66663 2.6665H12M20 2.6665H23.3333C26.6533 2.6665 29.3333 5.3465 29.3333 8.6665V11.9998M29.3333 21.3332V23.3332C29.3333 26.6532 26.6533 29.3332 23.3333 29.3332H21.3333M12 29.3332H8.66663C5.34663 29.3332 2.66663 26.6532 2.66663 23.3332V19.9998M18 11.9998V9.33317C18 7.99984 18.6666 7.33317 20 7.33317H22.6666C24 7.33317 24.6666 7.99984 24.6666 9.33317V11.9998C24.6666 13.3332 24 13.9998 22.6666 13.9998M9.33329 17.9998H12C13.3333 17.9998 14 18.6665 14 19.9998V22.6665C14 23.9998 13.3333 24.6665 12 24.6665H9.33329C7.99996 24.6665 7.33329 23.9998 7.33329 22.6665M14 9.33317V11.9998C14 13.3332 13.3333 13.9998 12 13.9998H9.33329C7.99996 13.9998 7.33329 13.3332 7.33329 11.9998V9.33317C7.33329 7.99984 7.99996 7.33317 9.33329 7.33317H12C13.3333 7.33317 14 7.99984 14 9.33317ZM24.6666 19.9998V22.6665C24.6666 23.9998 24 24.6665 22.6666 24.6665H20C18.6666 24.6665 18 23.9998 18 22.6665V19.9998C18 18.6665 18.6666 17.9998 20 17.9998H22.6666C24 17.9998 24.6666 18.6665 24.6666 19.9998Z" stroke="white" stroke-width="1.5" stroke-linecap="round" stroke-linejoin="round"/>
</svg>
