<svg fill="none" height="32" viewBox="0 0 32 32" width="32" xmlns="http://www.w3.org/2000/svg">
  
    <path
        d="M16 18.6673C16.7073 18.6673 17.3856 18.3864 17.8857 17.8863C18.3858 17.3862 18.6667 16.7079 18.6667 16.0007C18.6667 15.2934 18.3858 14.6151 17.8857 14.115C17.3856 13.6149 16.7073 13.334 16 13.334C15.2928 13.334 14.6145 13.6149 14.1144 14.115C13.6143 14.6151 13.3334 15.2934 13.3334 16.0007C13.3334 16.7079 13.6143 17.3862 14.1144 17.8863C14.6145 18.3864 15.2928 18.6673 16 18.6673Z"
        stroke="white" stroke-linecap="round" stroke-linejoin="round" stroke-miterlimit="10"
        stroke-width="1.5" />
    <path
        d="M7.11121 16.7837V15.2192C7.11121 14.2948 7.86676 13.5304 8.8001 13.5304C10.409 13.5304 11.0668 12.3926 10.2579 10.997C9.79565 10.197 10.0712 9.15702 10.8801 8.6948L12.4179 7.8148C13.1201 7.39702 14.0268 7.64591 14.4445 8.34813L14.5423 8.51702C15.3423 9.91257 16.6579 9.91257 17.4668 8.51702L17.5645 8.34813C17.9823 7.64591 18.889 7.39702 19.5912 7.8148L21.129 8.6948C21.9379 9.15702 22.2134 10.197 21.7512 10.997C20.9423 12.3926 21.6001 13.5304 23.209 13.5304C24.1334 13.5304 24.8979 14.2859 24.8979 15.2192V16.7837C24.8979 17.7081 24.1423 18.4726 23.209 18.4726C21.6001 18.4726 20.9423 19.6104 21.7512 21.0059C22.2134 21.8148 21.9379 22.8459 21.129 23.3081L19.5912 24.1881C18.889 24.6059 17.9823 24.357 17.5645 23.6548L17.4668 23.4859C16.6668 22.0904 15.3512 22.0904 14.5423 23.4859L14.4445 23.6548C14.0268 24.357 13.1201 24.6059 12.4179 24.1881L10.8801 23.3081C10.4926 23.085 10.2095 22.7173 10.0928 22.2857C9.97619 21.8541 10.0355 21.3938 10.2579 21.0059C11.0668 19.6104 10.409 18.4726 8.8001 18.4726C7.86676 18.4726 7.11121 17.7081 7.11121 16.7837Z"
        stroke="white" stroke-linecap="round" stroke-linejoin="round" stroke-miterlimit="10"
        stroke-width="1.5" />
</svg>
