<svg fill="none" height="32" viewBox="0 0 32 32" width="32" xmlns="http://www.w3.org/2000/svg">
 
    <path
        d="M23.1111 15.138V20.4447C23.1111 24.0002 22.2222 24.8891 18.6667 24.8891H13.3334C9.7778 24.8891 8.88892 24.0002 8.88892 20.4447V11.5558C8.88892 8.00022 9.7778 7.11133 13.3334 7.11133H18.6667C22.2222 7.11133 23.1111 8.00022 23.1111 11.5558M17.7778 10.2224H14.2222"
        stroke="white" stroke-linecap="round" stroke-linejoin="round" stroke-width="1.5" />
    <path
        d="M16.0001 22.3122C16.3655 22.3122 16.7159 22.167 16.9743 21.9087C17.2327 21.6503 17.3779 21.2998 17.3779 20.9344C17.3779 20.569 17.2327 20.2186 16.9743 19.9602C16.7159 19.7018 16.3655 19.5566 16.0001 19.5566C15.6347 19.5566 15.2842 19.7018 15.0259 19.9602C14.7675 20.2186 14.6223 20.569 14.6223 20.9344C14.6223 21.2998 14.7675 21.6503 15.0259 21.9087C15.2842 22.167 15.6347 22.3122 16.0001 22.3122Z"
        stroke="white" stroke-linecap="round" stroke-linejoin="round" stroke-width="1.5" />
</svg>
