<svg width="24" height="24" viewBox="0 0 24 24" fill="none" xmlns="http://www.w3.org/2000/svg">
<path d="M10.4899 2.23055L5.49991 4.11055C4.34991 4.54055 3.40991 5.90055 3.40991 7.12055V14.5505C3.40991 15.7305 4.18991 17.2805 5.13991 17.9905L9.43991 21.2005C10.8499 22.2605 13.1699 22.2605 14.5799 21.2005L18.8799 17.9905C19.8299 17.2805 20.6099 15.7305 20.6099 14.5505V7.12055C20.6099 5.89055 19.6699 4.53055 18.5199 4.10055L13.5299 2.23055C12.6799 1.92055 11.3199 1.92055 10.4899 2.23055Z" stroke="#2B2A29" stroke-width="1.5" stroke-linecap="round" stroke-linejoin="round"/>
<path d="M12 12.5C12.5304 12.5 13.0391 12.2893 13.4142 11.9142C13.7893 11.5391 14 11.0304 14 10.5C14 9.96957 13.7893 9.46086 13.4142 9.08579C13.0391 8.71071 12.5304 8.5 12 8.5C11.4696 8.5 10.9609 8.71071 10.5858 9.08579C10.2107 9.46086 10 9.96957 10 10.5C10 11.0304 10.2107 11.5391 10.5858 11.9142C10.9609 12.2893 11.4696 12.5 12 12.5ZM12 12.5V15.5" stroke="#2B2A29" stroke-width="1.5" stroke-miterlimit="10" stroke-linecap="round" stroke-linejoin="round"/>
</svg>
