<svg fill="none" height="32" viewBox="0 0 32 32" width="32" xmlns="http://www.w3.org/2000/svg">
    
    <path
        d="M8.03125 24.5523C8.03125 21.1129 11.4529 18.3311 15.6656 18.3311C16.5188 18.3311 17.3454 18.4466 18.1186 18.6599M15.6656 15.6648C16.8442 15.6648 17.9745 15.1967 18.8078 14.3633C19.6412 13.5299 20.1094 12.3996 20.1094 11.2211C20.1094 10.0425 19.6412 8.91225 18.8078 8.07889C17.9745 7.24552 16.8442 6.77734 15.6656 6.77734C14.4871 6.77734 13.3568 7.24552 12.5234 8.07889C11.69 8.91225 11.2219 10.0425 11.2219 11.2211C11.2219 12.3996 11.69 13.5299 12.5234 14.3633C13.3568 15.1967 14.4871 15.6648 15.6656 15.6648Z"
        stroke="white" stroke-linecap="round" stroke-linejoin="round" stroke-width="1.5" />
    <path
        d="M24.5534 20.9971C24.5534 21.6637 24.3667 22.2947 24.0379 22.8279C23.8513 23.1479 23.6113 23.4323 23.3358 23.6634C22.7137 24.2233 21.896 24.5521 20.9984 24.5521C20.3856 24.5534 19.7831 24.3951 19.2502 24.0927C18.7172 23.7904 18.2722 23.3545 17.9588 22.8279C17.6205 22.2773 17.4421 21.6434 17.4434 20.9971C17.4434 19.8773 17.9588 18.873 18.7765 18.2242C19.2991 17.8054 19.9294 17.5427 20.5947 17.4665C21.2601 17.3902 21.9335 17.5036 22.5372 17.7934C23.141 18.0832 23.6506 18.5377 24.0073 19.1045C24.364 19.6713 24.5533 20.3274 24.5534 20.9971Z"
        stroke="white" stroke-linecap="round" stroke-linejoin="round" stroke-miterlimit="10"
        stroke-width="1.5" />
    <path d="M19.6113 20.9979L20.4912 21.8778L22.3842 20.127" stroke="white" stroke-linecap="round"
        stroke-linejoin="round" stroke-width="1.5" />
</svg>
