<svg width="32" height="32" viewBox="0 0 32 32" fill="none" xmlns="http://www.w3.org/2000/svg">
<rect width="32" height="32" rx="7" fill=""/>
<g clip-path="url(#clip0_3402_6)">
<path d="M23.5 10.9993H10.1667C9.45083 10.9993 8.77333 10.6893 8.30417 10.1668C8.7625 9.65518 9.42833 9.33268 10.1667 9.33268H25.1667C25.6275 9.33268 26 8.95935 26 8.49935C26 8.03935 25.6275 7.66602 25.1667 7.66602H10.1667C7.86583 7.66602 6 9.53185 6 11.8327V20.166C6 22.4668 7.86583 24.3327 10.1667 24.3327H23.5C24.8808 24.3327 26 23.2135 26 21.8327V13.4993C26 12.1185 24.8808 10.9993 23.5 10.9993ZM24.3333 21.8327C24.3333 22.2918 23.96 22.666 23.5 22.666H10.1667C8.78833 22.666 7.66667 21.5443 7.66667 20.166V11.831C8.37833 12.3635 9.25333 12.666 10.1667 12.666H23.5C23.96 12.666 24.3333 13.0402 24.3333 13.4993V21.8327ZM22.6667 17.666C22.6667 18.126 22.2933 18.4993 21.8333 18.4993C21.3733 18.4993 21 18.126 21 17.666C21 17.206 21.3733 16.8327 21.8333 16.8327C22.2933 16.8327 22.6667 17.206 22.6667 17.666Z" fill="white"/>
</g>
<defs>
<clipPath id="clip0_3402_6">
<rect width="20" height="20" fill="white" transform="translate(6 6)"/>
</clipPath>
</defs>
</svg>
