<?xml version="1.0" encoding="utf-8"?>
<!-- Generator: Adobe Illustrator 24.0.0, SVG Export Plug-In . SVG Version: 6.00 Build 0)  -->
<svg version="1.1" id="Ebene_1" shape-rendering="auto"
	 xmlns="http://www.w3.org/2000/svg" xmlns:xlink="http://www.w3.org/1999/xlink" x="0px" y="0px" viewBox="0 0 728 728"
	 style="enable-background:new 0 0 728 728;" xml:space="preserve">
<path d="M228.8,44.5c2.8,0,5-2.3,5-5v5H228.8z"/>
<path d="M238.9,20.9c-2.8,0-5,2.3-5,5c0,0,0,0,0,0v18.6h23.7V20.9H238.9z"/>
<path d="M262.5,44.5h13.6c2.8,0,5-2.3,5-5V25.9c0-2.8-2.3-5-5-5h-18.6v23.7H262.5z"/>
<path d="M309.8,20.9h13.6c2.8,0,5,2.3,5,5v13.6c0,2.8-2.3,5-5,5h-13.6c-2.8,0-5-2.3-5-5V25.9C304.8,23.1,307.1,20.9,309.8,20.9z"/>
<path d="M357.2,20.9h13.6c2.8,0,5,2.3,5,5v13.6c0,2.8-2.3,5-5,5h-13.6c-2.8,0-5-2.3-5-5V25.9C352.1,23.1,354.4,20.9,357.2,20.9z"/>
<path d="M404.5,20.9h13.6c2.8,0,5,2.3,5,5v13.6c0,2.8-2.3,5-5,5h-13.6c-2.8,0-5-2.3-5-5V25.9C399.5,23.1,401.7,20.9,404.5,20.9z"/>
<path d="M465.4,20.9h-13.6c-2.8,0-5,2.3-5,5c0,0,0,0,0,0v13.6c0,2.8,2.3,5,5,5h18.6V20.9H465.4z"/>
<rect x="470.5" y="20.9" width="23.7" height="23.7"/>
<path d="M512.8,20.9c2.8,0,5,2.3,5,5v18.6h-23.7V20.9H512.8z"/>
<path d="M228.8,44.5h-13.6c-2.8,0-5,2.3-5,5c0,0,0,0,0,0v13.6c0,2.8,2.3,5,5,5h18.6V44.5H228.8z"/>
<rect x="233.8" y="44.5" width="23.7" height="23.7"/>
<path d="M262.5,44.5h-5v5C257.5,46.8,259.7,44.5,262.5,44.5C262.5,44.5,262.5,44.5,262.5,44.5z"/>
<path d="M262.5,68.2c-2.8,0-5-2.3-5-5v5H262.5z"/>
<path d="M352.1,63.2V49.5c0-2.8-2.3-5-5-5h-13.6c-2.8,0-5,2.3-5,5c0,0,0,0,0,0v18.6h23.7V63.2z"/>
<path d="M418.1,68.2c2.8,0,5-2.3,5-5v5H418.1z"/>
<path d="M446.8,63.2V49.5c0-2.8-2.3-5-5-5h-13.6c-2.8,0-5,2.3-5,5c0,0,0,0,0,0v18.6h23.7V63.2z"/>
<path d="M451.8,68.2c-2.8,0-5-2.3-5-5v5H451.8z"/>
<path d="M494.1,49.5v-5h-5C491.9,44.5,494.1,46.8,494.1,49.5z"/>
<path d="M489.1,68.2c2.8,0,5-2.3,5-5v5H489.1z"/>
<rect x="494.1" y="44.5" width="23.7" height="23.7"/>
<path d="M233.8,73.2v-5h-5C231.6,68.2,233.8,70.4,233.8,73.2z"/>
<path d="M233.8,86.8c0,2.8,2.3,5,5,5h18.6V68.2h-23.7V86.8z"/>
<path d="M262.5,91.8h13.6c2.8,0,5-2.3,5-5V73.2c0-2.8-2.3-5-5-5h-18.6v23.7H262.5z"/>
<path d="M323.5,91.8c2.8,0,5-2.3,5-5v5H323.5z"/>
<rect x="328.5" y="68.2" width="23.7" height="23.7"/>
<path d="M370.8,91.8c2.8,0,5-2.3,5-5v5H370.8z"/>
<path d="M357.2,91.8c-2.8,0-5-2.3-5-5v5H357.2z"/>
<path d="M380.8,68.2c-2.8,0-5,2.3-5,5c0,0,0,0,0,0v18.6h23.7V68.2H380.8z"/>
<rect x="399.5" y="68.2" width="23.7" height="23.7"/>
<rect x="423.1" y="68.2" width="23.7" height="23.7"/>
<rect x="446.8" y="68.2" width="23.7" height="23.7"/>
<rect x="470.5" y="68.2" width="23.7" height="23.7"/>
<rect x="494.1" y="68.2" width="23.7" height="23.7"/>
<path d="M309.8,91.8c-2.8,0-5,2.3-5,5c0,0,0,0,0,0v18.6h23.7V91.8H309.8z"/>
<rect x="328.5" y="91.8" width="23.7" height="23.7"/>
<rect x="352.1" y="91.8" width="23.7" height="23.7"/>
<rect x="375.8" y="91.8" width="23.7" height="23.7"/>
<path d="M423.1,110.5c0,2.8-2.3,5-5,5h-18.6V91.8h23.7V110.5z"/>
<path d="M428.2,91.8h-5v5C423.1,94.1,425.4,91.8,428.2,91.8C428.2,91.8,428.2,91.8,428.2,91.8z"/>
<path d="M494.1,96.9v-5h-5C491.9,91.8,494.1,94.1,494.1,96.9z"/>
<path d="M489.1,115.5c2.8,0,5-2.3,5-5v5H489.1z"/>
<rect x="494.1" y="91.8" width="23.7" height="23.7"/>
<path d="M262.5,115.5h13.6c2.8,0,5,2.3,5,5v13.6c0,2.8-2.3,5-5,5h-13.6c-2.8,0-5-2.3-5-5v-13.6C257.5,117.8,259.7,115.5,262.5,115.5
	z"/>
<rect x="304.8" y="115.5" width="23.7" height="23.7"/>
<rect x="328.5" y="115.5" width="23.7" height="23.7"/>
<rect x="352.1" y="115.5" width="23.7" height="23.7"/>
<path d="M399.5,134.1c0,2.8-2.3,5-5,5h-18.6v-23.7h23.7V134.1z"/>
<path d="M404.5,115.5h-5v5C399.5,117.8,401.7,115.5,404.5,115.5C404.5,115.5,404.5,115.5,404.5,115.5z"/>
<path d="M451.8,115.5c-2.8,0-5,2.3-5,5c0,0,0,0,0,0v18.6h23.7v-23.7H451.8z"/>
<rect x="470.5" y="115.5" width="23.7" height="23.7"/>
<path d="M517.8,134.1c0,2.8-2.3,5-5,5h-18.6v-23.7h23.7V134.1z"/>
<path d="M233.8,157.8v-13.6c0-2.8-2.3-5-5-5h-13.6c-2.8,0-5,2.3-5,5c0,0,0,0,0,0v18.6h23.7V157.8z"/>
<rect x="304.8" y="139.2" width="23.7" height="23.7"/>
<path d="M333.5,139.2h-5v5C328.5,141.4,330.7,139.2,333.5,139.2C333.5,139.2,333.5,139.2,333.5,139.2z"/>
<rect x="446.8" y="139.2" width="23.7" height="23.7"/>
<path d="M494.1,157.8c0,2.8-2.3,5-5,5h-18.6v-23.7h23.7V157.8z"/>
<path d="M499.2,139.2h-5v5C494.1,141.4,496.4,139.2,499.2,139.2C499.2,139.2,499.2,139.2,499.2,139.2z"/>
<rect x="210.2" y="162.8" width="23.7" height="23.7"/>
<path d="M238.9,186.5c-2.8,0-5-2.3-5-5v5H238.9z"/>
<path d="M262.5,162.8h13.6c2.8,0,5,2.3,5,5v13.6c0,2.8-2.3,5-5,5h-13.6c-2.8,0-5-2.3-5-5v-13.6C257.5,165.1,259.7,162.8,262.5,162.8
	z"/>
<path d="M299.8,186.5c2.8,0,5-2.3,5-5v5H299.8z"/>
<rect x="304.8" y="162.8" width="23.7" height="23.7"/>
<path d="M357.2,162.8h13.6c2.8,0,5,2.3,5,5v13.6c0,2.8-2.3,5-5,5h-13.6c-2.8,0-5-2.3-5-5v-13.6C352.1,165.1,354.4,162.8,357.2,162.8
	z"/>
<path d="M404.5,162.8h13.6c2.8,0,5,2.3,5,5v13.6c0,2.8-2.3,5-5,5h-13.6c-2.8,0-5-2.3-5-5v-13.6C399.5,165.1,401.7,162.8,404.5,162.8
	z"/>
<path d="M446.8,181.5c0,2.8,2.3,5,5,5h13.6c2.8,0,5-2.3,5-5v-18.6h-23.7V181.5z"/>
<path d="M475.5,162.8h-5v5C470.5,165.1,472.7,162.8,475.5,162.8C475.5,162.8,475.5,162.8,475.5,162.8z"/>
<path d="M489.1,186.5c2.8,0,5-2.3,5-5v5H489.1z"/>
<path d="M517.8,181.5v-13.6c0-2.8-2.3-5-5-5h-13.6c-2.8,0-5,2.3-5,5c0,0,0,0,0,0v18.6h23.7V181.5z"/>
<path d="M210.2,205.1c0,2.8,2.3,5,5,5h18.6v-23.7h-23.7V205.1z"/>
<path d="M252.5,186.5c2.8,0,5,2.3,5,5v18.6h-23.7v-23.7H252.5z"/>
<path d="M286.2,186.5c-2.8,0-5,2.3-5,5c0,0,0,0,0,0v18.6h23.7v-23.7H286.2z"/>
<path d="M328.5,205.1c0,2.8-2.3,5-5,5h-18.6v-23.7h23.7V205.1z"/>
<path d="M370.8,210.2c2.8,0,5-2.3,5-5v5H370.8z"/>
<path d="M399.5,205.1v-13.6c0-2.8-2.3-5-5-5h-13.6c-2.8,0-5,2.3-5,5c0,0,0,0,0,0v18.6h23.7V205.1z"/>
<path d="M428.2,186.5h13.6c2.8,0,5,2.3,5,5v13.6c0,2.8-2.3,5-5,5h-13.6c-2.8,0-5-2.3-5-5v-13.6C423.1,188.8,425.4,186.5,428.2,186.5
	z"/>
<path d="M465.4,210.2c2.8,0,5-2.3,5-5v5H465.4z"/>
<path d="M475.5,186.5c-2.8,0-5,2.3-5,5c0,0,0,0,0,0v18.6h23.7v-23.7H475.5z"/>
<path d="M517.8,205.1c0,2.8-2.3,5-5,5h-18.6v-23.7h23.7V205.1z"/>
<path d="M120.5,210.2c-2.8,0-5,2.3-5,5c0,0,0,0,0,0v18.6h23.7v-23.7H120.5z"/>
<rect x="139.2" y="210.2" width="23.7" height="23.7"/>
<rect x="162.8" y="210.2" width="23.7" height="23.7"/>
<path d="M205.1,210.2c2.8,0,5,2.3,5,5v18.6h-23.7v-23.7H205.1z"/>
<path d="M233.8,215.2v-5h-5C231.6,210.2,233.8,212.4,233.8,215.2z"/>
<path d="M233.8,228.8c0,2.8,2.3,5,5,5h13.6c2.8,0,5-2.3,5-5v-18.6h-23.7V228.8z"/>
<path d="M281.2,228.8c0,2.8,2.3,5,5,5h13.6c2.8,0,5-2.3,5-5v-18.6h-23.7V228.8z"/>
<path d="M309.8,210.2h-5v5C304.8,212.4,307.1,210.2,309.8,210.2C309.8,210.2,309.8,210.2,309.8,210.2z"/>
<path d="M347.1,210.2h-13.6c-2.8,0-5,2.3-5,5c0,0,0,0,0,0v13.6c0,2.8,2.3,5,5,5h18.6v-23.7H347.1z"/>
<rect x="352.1" y="210.2" width="23.7" height="23.7"/>
<path d="M399.5,228.8c0,2.8-2.3,5-5,5h-18.6v-23.7h23.7V228.8z"/>
<path d="M465.4,210.2h-13.6c-2.8,0-5,2.3-5,5c0,0,0,0,0,0v13.6c0,2.8,2.3,5,5,5h18.6v-23.7H465.4z"/>
<path d="M494.1,228.8c0,2.8-2.3,5-5,5h-18.6v-23.7h23.7V228.8z"/>
<path d="M499.2,210.2h-5v5C494.1,212.4,496.4,210.2,499.2,210.2C499.2,210.2,499.2,210.2,499.2,210.2z"/>
<path d="M546.5,210.2c-2.8,0-5,2.3-5,5c0,0,0,0,0,0v18.6h23.7v-23.7H546.5z"/>
<path d="M570.1,233.8h13.6c2.8,0,5-2.3,5-5v-13.6c0-2.8-2.3-5-5-5h-18.6v23.7H570.1z"/>
<path d="M664.8,210.2h13.6c2.8,0,5,2.3,5,5v13.6c0,2.8-2.3,5-5,5h-13.6c-2.8,0-5-2.3-5-5v-13.6C659.8,212.4,662,210.2,664.8,210.2z"
	/>
<path d="M44.5,252.5v-13.6c0-2.8-2.3-5-5-5H25.9c-2.8,0-5,2.3-5,5c0,0,0,0,0,0v18.6h23.7V252.5z"/>
<path d="M49.5,257.5c-2.8,0-5-2.3-5-5v5H49.5z"/>
<path d="M115.5,252.5c0,2.8,2.3,5,5,5h18.6v-23.7h-23.7V252.5z"/>
<path d="M162.8,252.5c0,2.8-2.3,5-5,5h-18.6v-23.7h23.7V252.5z"/>
<path d="M167.9,233.8h-5v5C162.8,236.1,165.1,233.8,167.9,233.8C167.9,233.8,167.9,233.8,167.9,233.8z"/>
<path d="M186.5,238.9v-5h-5C184.2,233.8,186.5,236.1,186.5,238.9z"/>
<path d="M181.5,257.5c2.8,0,5-2.3,5-5v5H181.5z"/>
<rect x="186.5" y="233.8" width="23.7" height="23.7"/>
<rect x="541.5" y="233.8" width="23.7" height="23.7"/>
<path d="M570.1,233.8h-5v5C565.1,236.1,567.4,233.8,570.1,233.8C570.1,233.8,570.1,233.8,570.1,233.8z"/>
<path d="M583.7,257.5c2.8,0,5-2.3,5-5v5H583.7z"/>
<path d="M570.1,257.5c-2.8,0-5-2.3-5-5v5H570.1z"/>
<path d="M593.8,233.8c-2.8,0-5,2.3-5,5c0,0,0,0,0,0v18.6h23.7v-23.7H593.8z"/>
<rect x="612.4" y="233.8" width="23.7" height="23.7"/>
<path d="M654.7,233.8c2.8,0,5,2.3,5,5v18.6h-23.7v-23.7H654.7z"/>
<path d="M707.1,252.5v-13.6c0-2.8-2.3-5-5-5h-13.6c-2.8,0-5,2.3-5,5c0,0,0,0,0,0v18.6h23.7V252.5z"/>
<rect x="20.9" y="257.5" width="23.7" height="23.7"/>
<rect x="44.5" y="257.5" width="23.7" height="23.7"/>
<rect x="68.2" y="257.5" width="23.7" height="23.7"/>
<path d="M96.9,281.2h13.6c2.8,0,5-2.3,5-5v-13.6c0-2.8-2.3-5-5-5H91.8v23.7H96.9z"/>
<path d="M181.5,257.5h-13.6c-2.8,0-5,2.3-5,5c0,0,0,0,0,0v13.6c0,2.8,2.3,5,5,5h18.6v-23.7H181.5z"/>
<path d="M210.2,276.1c0,2.8-2.3,5-5,5h-18.6v-23.7h23.7V276.1z"/>
<path d="M541.5,276.1c0,2.8,2.3,5,5,5h18.6v-23.7h-23.7V276.1z"/>
<rect x="565.1" y="257.5" width="23.7" height="23.7"/>
<path d="M612.4,276.1c0,2.8-2.3,5-5,5h-18.6v-23.7h23.7V276.1z"/>
<path d="M617.5,257.5h-5v5C612.4,259.7,614.7,257.5,617.5,257.5C617.5,257.5,617.5,257.5,617.5,257.5z"/>
<path d="M636.1,262.5v-5h-5C633.9,257.5,636.1,259.7,636.1,262.5z"/>
<path d="M631.1,281.2c2.8,0,5-2.3,5-5v5H631.1z"/>
<rect x="636.1" y="257.5" width="23.7" height="23.7"/>
<rect x="683.4" y="257.5" width="23.7" height="23.7"/>
<rect x="20.9" y="281.2" width="23.7" height="23.7"/>
<path d="M49.5,281.2h-5v5C44.5,283.4,46.8,281.2,49.5,281.2C49.5,281.2,49.5,281.2,49.5,281.2z"/>
<path d="M499.2,281.2h13.6c2.8,0,5,2.3,5,5v13.6c0,2.8-2.3,5-5,5h-13.6c-2.8,0-5-2.3-5-5v-13.6C494.1,283.4,496.4,281.2,499.2,281.2
	z"/>
<path d="M607.4,304.8c2.8,0,5-2.3,5-5v5H607.4z"/>
<path d="M617.5,281.2c-2.8,0-5,2.3-5,5c0,0,0,0,0,0v18.6h23.7v-23.7H617.5z"/>
<path d="M659.8,299.8c0,2.8-2.3,5-5,5h-18.6v-23.7h23.7V299.8z"/>
<path d="M683.4,299.8c0,2.8,2.3,5,5,5h13.6c2.8,0,5-2.3,5-5v-18.6h-23.7V299.8z"/>
<rect x="20.9" y="304.8" width="23.7" height="23.7"/>
<path d="M49.5,328.5c-2.8,0-5-2.3-5-5v5H49.5z"/>
<path d="M86.8,328.5c2.8,0,5-2.3,5-5v5H86.8z"/>
<path d="M115.5,323.5v-13.6c0-2.8-2.3-5-5-5H96.9c-2.8,0-5,2.3-5,5c0,0,0,0,0,0v18.6h23.7V323.5z"/>
<path d="M157.8,304.8h-13.6c-2.8,0-5,2.3-5,5c0,0,0,0,0,0v13.6c0,2.8,2.3,5,5,5h18.6v-23.7H157.8z"/>
<path d="M167.9,328.5h13.6c2.8,0,5-2.3,5-5v-13.6c0-2.8-2.3-5-5-5h-18.6v23.7H167.9z"/>
<path d="M215.2,304.8h13.6c2.8,0,5,2.3,5,5v13.6c0,2.8-2.3,5-5,5h-13.6c-2.8,0-5-2.3-5-5v-13.6C210.2,307.1,212.4,304.8,215.2,304.8
	z"/>
<path d="M593.8,304.8c-2.8,0-5,2.3-5,5c0,0,0,0,0,0v18.6h23.7v-23.7H593.8z"/>
<path d="M636.1,323.5c0,2.8-2.3,5-5,5h-18.6v-23.7h23.7V323.5z"/>
<path d="M641.1,304.8h-5v5C636.1,307.1,638.4,304.8,641.1,304.8C641.1,304.8,641.1,304.8,641.1,304.8z"/>
<path d="M20.9,347.1c0,2.8,2.3,5,5,5h18.6v-23.7H20.9V347.1z"/>
<rect x="44.5" y="328.5" width="23.7" height="23.7"/>
<rect x="68.2" y="328.5" width="23.7" height="23.7"/>
<rect x="91.8" y="328.5" width="23.7" height="23.7"/>
<path d="M120.5,352.1c-2.8,0-5-2.3-5-5v5H120.5z"/>
<path d="M536.4,328.5h-13.6c-2.8,0-5,2.3-5,5c0,0,0,0,0,0v13.6c0,2.8,2.3,5,5,5h18.6v-23.7H536.4z"/>
<path d="M560.1,328.5c2.8,0,5,2.3,5,5v18.6h-23.7v-23.7H560.1z"/>
<rect x="588.8" y="328.5" width="23.7" height="23.7"/>
<path d="M617.5,328.5h-5v5C612.4,330.7,614.7,328.5,617.5,328.5C617.5,328.5,617.5,328.5,617.5,328.5z"/>
<path d="M641.1,328.5c-2.8,0-5,2.3-5,5c0,0,0,0,0,0v18.6h23.7v-23.7H641.1z"/>
<rect x="659.8" y="328.5" width="23.7" height="23.7"/>
<path d="M688.5,352.1h13.6c2.8,0,5-2.3,5-5v-13.6c0-2.8-2.3-5-5-5h-18.6v23.7H688.5z"/>
<path d="M91.8,357.2v-5h-5C89.6,352.1,91.8,354.4,91.8,357.2z"/>
<path d="M91.8,370.8c0,2.8,2.3,5,5,5h18.6v-23.7H91.8V370.8z"/>
<rect x="115.5" y="352.1" width="23.7" height="23.7"/>
<rect x="139.2" y="352.1" width="23.7" height="23.7"/>
<rect x="162.8" y="352.1" width="23.7" height="23.7"/>
<rect x="186.5" y="352.1" width="23.7" height="23.7"/>
<path d="M215.2,375.8h13.6c2.8,0,5-2.3,5-5v-13.6c0-2.8-2.3-5-5-5h-18.6v23.7H215.2z"/>
<path d="M541.5,357.2v-5h-5C539.2,352.1,541.5,354.4,541.5,357.2z"/>
<path d="M541.5,370.8c0,2.8,2.3,5,5,5h13.6c2.8,0,5-2.3,5-5v-18.6h-23.7V370.8z"/>
<path d="M588.8,370.8c0,2.8,2.3,5,5,5h13.6c2.8,0,5-2.3,5-5v-18.6h-23.7V370.8z"/>
<rect x="636.1" y="352.1" width="23.7" height="23.7"/>
<path d="M664.8,352.1h-5v5C659.8,354.4,662,352.1,664.8,352.1C664.8,352.1,664.8,352.1,664.8,352.1z"/>
<path d="M664.8,375.8c-2.8,0-5-2.3-5-5v5H664.8z"/>
<path d="M63.2,399.5c2.8,0,5-2.3,5-5v5H63.2z"/>
<path d="M91.8,394.4v-13.6c0-2.8-2.3-5-5-5H73.2c-2.8,0-5,2.3-5,5c0,0,0,0,0,0v18.6h23.7V394.4z"/>
<path d="M186.5,380.8v-5h-5C184.2,375.8,186.5,378.1,186.5,380.8z"/>
<path d="M186.5,394.4c0,2.8,2.3,5,5,5h13.6c2.8,0,5-2.3,5-5v-18.6h-23.7V394.4z"/>
<path d="M215.2,375.8h-5v5C210.2,378.1,212.4,375.8,215.2,375.8C215.2,375.8,215.2,375.8,215.2,375.8z"/>
<path d="M541.5,394.4v-13.6c0-2.8-2.3-5-5-5h-13.6c-2.8,0-5,2.3-5,5c0,0,0,0,0,0v18.6h23.7V394.4z"/>
<path d="M631.1,399.5c2.8,0,5-2.3,5-5v5H631.1z"/>
<rect x="636.1" y="375.8" width="23.7" height="23.7"/>
<path d="M678.4,375.8c2.8,0,5,2.3,5,5v18.6h-23.7v-23.7H678.4z"/>
<path d="M63.2,399.5H49.5c-2.8,0-5,2.3-5,5c0,0,0,0,0,0v13.6c0,2.8,2.3,5,5,5h18.6v-23.7H63.2z"/>
<rect x="68.2" y="399.5" width="23.7" height="23.7"/>
<path d="M96.9,423.1c-2.8,0-5-2.3-5-5v5H96.9z"/>
<path d="M157.8,399.5h-13.6c-2.8,0-5,2.3-5,5c0,0,0,0,0,0v13.6c0,2.8,2.3,5,5,5h18.6v-23.7H157.8z"/>
<path d="M167.9,423.1h13.6c2.8,0,5-2.3,5-5v-13.6c0-2.8-2.3-5-5-5h-18.6v23.7H167.9z"/>
<path d="M517.8,418.1c0,2.8,2.3,5,5,5h13.6c2.8,0,5-2.3,5-5v-18.6h-23.7V418.1z"/>
<path d="M588.8,418.1v-13.6c0-2.8-2.3-5-5-5h-13.6c-2.8,0-5,2.3-5,5c0,0,0,0,0,0v18.6h23.7V418.1z"/>
<path d="M631.1,399.5h-13.6c-2.8,0-5,2.3-5,5c0,0,0,0,0,0v13.6c0,2.8,2.3,5,5,5h18.6v-23.7H631.1z"/>
<rect x="636.1" y="399.5" width="23.7" height="23.7"/>
<path d="M683.4,418.1c0,2.8-2.3,5-5,5h-18.6v-23.7h23.7V418.1z"/>
<path d="M25.9,423.1h13.6c2.8,0,5,2.3,5,5v13.6c0,2.8-2.3,5-5,5H25.9c-2.8,0-5-2.3-5-5v-13.6C20.9,425.4,23.1,423.1,25.9,423.1z"/>
<path d="M68.2,428.2v-5h-5C65.9,423.1,68.2,425.4,68.2,428.2z"/>
<path d="M68.2,441.8c0,2.8,2.3,5,5,5h18.6v-23.7H68.2V441.8z"/>
<path d="M110.5,423.1c2.8,0,5,2.3,5,5v18.6H91.8v-23.7H110.5z"/>
<path d="M205.1,446.8c2.8,0,5-2.3,5-5v5H205.1z"/>
<path d="M233.8,441.8v-13.6c0-2.8-2.3-5-5-5h-13.6c-2.8,0-5,2.3-5,5c0,0,0,0,0,0v18.6h23.7V441.8z"/>
<path d="M499.2,423.1h13.6c2.8,0,5,2.3,5,5v13.6c0,2.8-2.3,5-5,5h-13.6c-2.8,0-5-2.3-5-5v-13.6C494.1,425.4,496.4,423.1,499.2,423.1
	z"/>
<path d="M560.1,446.8c2.8,0,5-2.3,5-5v5H560.1z"/>
<rect x="565.1" y="423.1" width="23.7" height="23.7"/>
<path d="M593.8,446.8c-2.8,0-5-2.3-5-5v5H593.8z"/>
<path d="M636.1,428.2v-5h-5C633.9,423.1,636.1,425.4,636.1,428.2z"/>
<rect x="636.1" y="423.1" width="23.7" height="23.7"/>
<path d="M664.8,423.1h-5v5C659.8,425.4,662,423.1,664.8,423.1C664.8,423.1,664.8,423.1,664.8,423.1z"/>
<path d="M91.8,451.8v-5h-5C89.6,446.8,91.8,449,91.8,451.8z"/>
<path d="M86.8,470.5c2.8,0,5-2.3,5-5v5H86.8z"/>
<rect x="91.8" y="446.8" width="23.7" height="23.7"/>
<path d="M120.5,470.5c-2.8,0-5-2.3-5-5v5H120.5z"/>
<path d="M157.8,446.8h-13.6c-2.8,0-5,2.3-5,5c0,0,0,0,0,0v13.6c0,2.8,2.3,5,5,5h18.6v-23.7H157.8z"/>
<rect x="162.8" y="446.8" width="23.7" height="23.7"/>
<rect x="186.5" y="446.8" width="23.7" height="23.7"/>
<path d="M233.8,465.4c0,2.8-2.3,5-5,5h-18.6v-23.7h23.7V465.4z"/>
<path d="M536.4,446.8h-13.6c-2.8,0-5,2.3-5,5c0,0,0,0,0,0v13.6c0,2.8,2.3,5,5,5h18.6v-23.7H536.4z"/>
<rect x="541.5" y="446.8" width="23.7" height="23.7"/>
<rect x="565.1" y="446.8" width="23.7" height="23.7"/>
<path d="M593.8,470.5h13.6c2.8,0,5-2.3,5-5v-13.6c0-2.8-2.3-5-5-5h-18.6v23.7H593.8z"/>
<path d="M636.1,465.4c0,2.8,2.3,5,5,5h13.6c2.8,0,5-2.3,5-5v-18.6h-23.7V465.4z"/>
<path d="M688.5,446.8h13.6c2.8,0,5,2.3,5,5v13.6c0,2.8-2.3,5-5,5h-13.6c-2.8,0-5-2.3-5-5v-13.6C683.4,449,685.7,446.8,688.5,446.8z"
	/>
<path d="M86.8,470.5H73.2c-2.8,0-5,2.3-5,5c0,0,0,0,0,0v13.6c0,2.8,2.3,5,5,5h18.6v-23.7H86.8z"/>
<rect x="91.8" y="470.5" width="23.7" height="23.7"/>
<path d="M120.5,494.1h13.6c2.8,0,5-2.3,5-5v-13.6c0-2.8-2.3-5-5-5h-18.6v23.7H120.5z"/>
<path d="M489.1,494.1c2.8,0,5-2.3,5-5v5H489.1z"/>
<path d="M517.8,489.1v-13.6c0-2.8-2.3-5-5-5h-13.6c-2.8,0-5,2.3-5,5c0,0,0,0,0,0v18.6h23.7V489.1z"/>
<path d="M522.8,494.1c-2.8,0-5-2.3-5-5v5H522.8z"/>
<path d="M565.1,475.5v-5h-5C562.9,470.5,565.1,472.7,565.1,475.5z"/>
<path d="M560.1,494.1c2.8,0,5-2.3,5-5v5H560.1z"/>
<rect x="565.1" y="470.5" width="23.7" height="23.7"/>
<path d="M593.8,470.5h-5v5C588.8,472.7,591,470.5,593.8,470.5C593.8,470.5,593.8,470.5,593.8,470.5z"/>
<path d="M607.4,494.1c2.8,0,5-2.3,5-5v5H607.4z"/>
<path d="M593.8,494.1c-2.8,0-5-2.3-5-5v5H593.8z"/>
<path d="M636.1,489.1v-13.6c0-2.8-2.3-5-5-5h-13.6c-2.8,0-5,2.3-5,5c0,0,0,0,0,0v18.6h23.7V489.1z"/>
<path d="M641.1,494.1c-2.8,0-5-2.3-5-5v5H641.1z"/>
<path d="M664.8,470.5h13.6c2.8,0,5,2.3,5,5v13.6c0,2.8-2.3,5-5,5h-13.6c-2.8,0-5-2.3-5-5v-13.6C659.8,472.7,662,470.5,664.8,470.5z"
	/>
<path d="M39.5,494.1H25.9c-2.8,0-5,2.3-5,5c0,0,0,0,0,0v13.6c0,2.8,2.3,5,5,5h18.6v-23.7H39.5z"/>
<path d="M49.5,517.8h13.6c2.8,0,5-2.3,5-5v-13.6c0-2.8-2.3-5-5-5H44.5v23.7H49.5z"/>
<path d="M167.9,494.1h13.6c2.8,0,5,2.3,5,5v13.6c0,2.8-2.3,5-5,5h-13.6c-2.8,0-5-2.3-5-5v-13.6C162.8,496.4,165.1,494.1,167.9,494.1
	z"/>
<path d="M215.2,494.1c-2.8,0-5,2.3-5,5c0,0,0,0,0,0v18.6h23.7v-23.7H215.2z"/>
<path d="M238.9,517.8h13.6c2.8,0,5-2.3,5-5v-13.6c0-2.8-2.3-5-5-5h-18.6v23.7H238.9z"/>
<path d="M299.8,494.1h-13.6c-2.8,0-5,2.3-5,5c0,0,0,0,0,0v13.6c0,2.8,2.3,5,5,5h18.6v-23.7H299.8z"/>
<path d="M323.5,494.1c2.8,0,5,2.3,5,5v18.6h-23.7v-23.7H323.5z"/>
<path d="M370.8,494.1h-13.6c-2.8,0-5,2.3-5,5c0,0,0,0,0,0v13.6c0,2.8,2.3,5,5,5h18.6v-23.7H370.8z"/>
<path d="M380.8,517.8h13.6c2.8,0,5-2.3,5-5v-13.6c0-2.8-2.3-5-5-5h-18.6v23.7H380.8z"/>
<path d="M451.8,494.1c-2.8,0-5,2.3-5,5c0,0,0,0,0,0v18.6h23.7v-23.7H451.8z"/>
<rect x="470.5" y="494.1" width="23.7" height="23.7"/>
<rect x="494.1" y="494.1" width="23.7" height="23.7"/>
<rect x="517.8" y="494.1" width="23.7" height="23.7"/>
<rect x="541.5" y="494.1" width="23.7" height="23.7"/>
<rect x="565.1" y="494.1" width="23.7" height="23.7"/>
<rect x="588.8" y="494.1" width="23.7" height="23.7"/>
<rect x="612.4" y="494.1" width="23.7" height="23.7"/>
<path d="M654.7,494.1c2.8,0,5,2.3,5,5v18.6h-23.7v-23.7H654.7z"/>
<path d="M678.4,517.8c2.8,0,5-2.3,5-5v5H678.4z"/>
<path d="M664.8,517.8c-2.8,0-5-2.3-5-5v5H664.8z"/>
<path d="M707.1,512.8v-13.6c0-2.8-2.3-5-5-5h-13.6c-2.8,0-5,2.3-5,5c0,0,0,0,0,0v18.6h23.7V512.8z"/>
<rect x="210.2" y="517.8" width="23.7" height="23.7"/>
<path d="M238.9,517.8h-5v5C233.8,520,236.1,517.8,238.9,517.8C238.9,517.8,238.9,517.8,238.9,517.8z"/>
<path d="M304.8,522.8v-5h-5C302.6,517.8,304.8,520,304.8,522.8z"/>
<path d="M299.8,541.5c2.8,0,5-2.3,5-5v5H299.8z"/>
<rect x="304.8" y="517.8" width="23.7" height="23.7"/>
<path d="M333.5,541.5c-2.8,0-5-2.3-5-5v5H333.5z"/>
<path d="M423.1,536.4v-13.6c0-2.8-2.3-5-5-5h-13.6c-2.8,0-5,2.3-5,5c0,0,0,0,0,0v18.6h23.7V536.4z"/>
<path d="M428.2,541.5c-2.8,0-5-2.3-5-5v5H428.2z"/>
<path d="M446.8,536.4c0,2.8,2.3,5,5,5h13.6c2.8,0,5-2.3,5-5v-18.6h-23.7V536.4z"/>
<path d="M475.5,517.8h-5v5C470.5,520,472.7,517.8,475.5,517.8C475.5,517.8,475.5,517.8,475.5,517.8z"/>
<path d="M494.1,522.8v-5h-5C491.9,517.8,494.1,520,494.1,522.8z"/>
<path d="M489.1,541.5c2.8,0,5-2.3,5-5v5H489.1z"/>
<rect x="494.1" y="517.8" width="23.7" height="23.7"/>
<path d="M522.8,517.8h-5v5C517.8,520,520,517.8,522.8,517.8C522.8,517.8,522.8,517.8,522.8,517.8z"/>
<path d="M588.8,522.8v-5h-5C586.5,517.8,588.8,520,588.8,522.8z"/>
<rect x="588.8" y="517.8" width="23.7" height="23.7"/>
<path d="M617.5,517.8h-5v5C612.4,520,614.7,517.8,617.5,517.8C617.5,517.8,617.5,517.8,617.5,517.8z"/>
<path d="M636.1,522.8v-5h-5C633.9,517.8,636.1,520,636.1,522.8z"/>
<path d="M631.1,541.5c2.8,0,5-2.3,5-5v5H631.1z"/>
<path d="M617.5,541.5c-2.8,0-5-2.3-5-5v5H617.5z"/>
<rect x="636.1" y="517.8" width="23.7" height="23.7"/>
<rect x="659.8" y="517.8" width="23.7" height="23.7"/>
<rect x="683.4" y="517.8" width="23.7" height="23.7"/>
<rect x="210.2" y="541.5" width="23.7" height="23.7"/>
<path d="M286.2,541.5c-2.8,0-5,2.3-5,5c0,0,0,0,0,0v18.6h23.7v-23.7H286.2z"/>
<rect x="304.8" y="541.5" width="23.7" height="23.7"/>
<rect x="328.5" y="541.5" width="23.7" height="23.7"/>
<path d="M370.8,541.5c2.8,0,5,2.3,5,5v18.6h-23.7v-23.7H370.8z"/>
<rect x="399.5" y="541.5" width="23.7" height="23.7"/>
<path d="M441.8,541.5c2.8,0,5,2.3,5,5v18.6h-23.7v-23.7H441.8z"/>
<path d="M475.5,541.5c-2.8,0-5,2.3-5,5c0,0,0,0,0,0v18.6h23.7v-23.7H475.5z"/>
<rect x="494.1" y="541.5" width="23.7" height="23.7"/>
<path d="M546.5,541.5h13.6c2.8,0,5,2.3,5,5v13.6c0,2.8-2.3,5-5,5h-13.6c-2.8,0-5-2.3-5-5v-13.6C541.5,543.7,543.7,541.5,546.5,541.5
	z"/>
<rect x="588.8" y="541.5" width="23.7" height="23.7"/>
<rect x="612.4" y="541.5" width="23.7" height="23.7"/>
<rect x="636.1" y="541.5" width="23.7" height="23.7"/>
<rect x="659.8" y="541.5" width="23.7" height="23.7"/>
<path d="M707.1,560.1c0,2.8-2.3,5-5,5h-18.6v-23.7h23.7V560.1z"/>
<rect x="210.2" y="565.1" width="23.7" height="23.7"/>
<rect x="281.2" y="565.1" width="23.7" height="23.7"/>
<path d="M328.5,583.7c0,2.8-2.3,5-5,5h-18.6v-23.7h23.7V583.7z"/>
<path d="M333.5,565.1h-5v5C328.5,567.4,330.7,565.1,333.5,565.1C333.5,565.1,333.5,565.1,333.5,565.1z"/>
<path d="M352.1,570.1v-5h-5C349.9,565.1,352.1,567.4,352.1,570.1z"/>
<path d="M352.1,583.7c0,2.8,2.3,5,5,5h13.6c2.8,0,5-2.3,5-5v-18.6h-23.7V583.7z"/>
<rect x="399.5" y="565.1" width="23.7" height="23.7"/>
<path d="M446.8,583.7c0,2.8-2.3,5-5,5h-18.6v-23.7h23.7V583.7z"/>
<path d="M470.5,583.7c0,2.8,2.3,5,5,5h18.6v-23.7h-23.7V583.7z"/>
<rect x="494.1" y="565.1" width="23.7" height="23.7"/>
<path d="M522.8,588.8c-2.8,0-5-2.3-5-5v5H522.8z"/>
<path d="M583.7,588.8c2.8,0,5-2.3,5-5v5H583.7z"/>
<rect x="588.8" y="565.1" width="23.7" height="23.7"/>
<rect x="612.4" y="565.1" width="23.7" height="23.7"/>
<path d="M641.1,565.1h-5v5C636.1,567.4,638.4,565.1,641.1,565.1C641.1,565.1,641.1,565.1,641.1,565.1z"/>
<path d="M659.8,570.1v-5h-5C657.5,565.1,659.8,567.4,659.8,570.1z"/>
<path d="M654.7,588.8c2.8,0,5-2.3,5-5v5H654.7z"/>
<path d="M641.1,588.8c-2.8,0-5-2.3-5-5v5H641.1z"/>
<rect x="659.8" y="565.1" width="23.7" height="23.7"/>
<path d="M688.5,565.1h-5v5C683.4,567.4,685.7,565.1,688.5,565.1C688.5,565.1,688.5,565.1,688.5,565.1z"/>
<path d="M210.2,607.4c0,2.8,2.3,5,5,5h13.6c2.8,0,5-2.3,5-5v-18.6h-23.7V607.4z"/>
<path d="M281.2,607.4c0,2.8,2.3,5,5,5h13.6c2.8,0,5-2.3,5-5v-18.6h-23.7V607.4z"/>
<path d="M309.8,588.8h-5v5C304.8,591,307.1,588.8,309.8,588.8C309.8,588.8,309.8,588.8,309.8,588.8z"/>
<path d="M399.5,607.4c0,2.8,2.3,5,5,5h13.6c2.8,0,5-2.3,5-5v-18.6h-23.7V607.4z"/>
<path d="M428.2,588.8h-5v5C423.1,591,425.4,588.8,428.2,588.8C428.2,588.8,428.2,588.8,428.2,588.8z"/>
<path d="M441.8,612.4c2.8,0,5-2.3,5-5v5H441.8z"/>
<path d="M470.5,607.4v-13.6c0-2.8-2.3-5-5-5h-13.6c-2.8,0-5,2.3-5,5c0,0,0,0,0,0v18.6h23.7V607.4z"/>
<path d="M494.1,593.8v-5h-5C491.9,588.8,494.1,591,494.1,593.8z"/>
<path d="M475.5,612.4c-2.8,0-5-2.3-5-5v5H475.5z"/>
<path d="M494.1,607.4c0,2.8,2.3,5,5,5h18.6v-23.7h-23.7V607.4z"/>
<rect x="517.8" y="588.8" width="23.7" height="23.7"/>
<rect x="541.5" y="588.8" width="23.7" height="23.7"/>
<rect x="565.1" y="588.8" width="23.7" height="23.7"/>
<rect x="588.8" y="588.8" width="23.7" height="23.7"/>
<rect x="612.4" y="588.8" width="23.7" height="23.7"/>
<rect x="636.1" y="588.8" width="23.7" height="23.7"/>
<rect x="659.8" y="588.8" width="23.7" height="23.7"/>
<path d="M252.5,636.1c2.8,0,5-2.3,5-5v5H252.5z"/>
<path d="M281.2,631.1v-13.6c0-2.8-2.3-5-5-5h-13.6c-2.8,0-5,2.3-5,5c0,0,0,0,0,0v18.6h23.7V631.1z"/>
<path d="M286.2,636.1c-2.8,0-5-2.3-5-5v5H286.2z"/>
<path d="M347.1,636.1c2.8,0,5-2.3,5-5v5H347.1z"/>
<path d="M375.8,631.1v-13.6c0-2.8-2.3-5-5-5h-13.6c-2.8,0-5,2.3-5,5c0,0,0,0,0,0v18.6h23.7V631.1z"/>
<path d="M380.8,636.1c-2.8,0-5-2.3-5-5v5H380.8z"/>
<path d="M441.8,612.4h-13.6c-2.8,0-5,2.3-5,5c0,0,0,0,0,0v13.6c0,2.8,2.3,5,5,5h18.6v-23.7H441.8z"/>
<rect x="446.8" y="612.4" width="23.7" height="23.7"/>
<path d="M475.5,636.1h13.6c2.8,0,5-2.3,5-5v-13.6c0-2.8-2.3-5-5-5h-18.6v23.7H475.5z"/>
<path d="M541.5,617.5v-5h-5C539.2,612.4,541.5,614.7,541.5,617.5z"/>
<path d="M541.5,631.1c0,2.8,2.3,5,5,5h13.6c2.8,0,5-2.3,5-5v-18.6h-23.7V631.1z"/>
<path d="M570.1,612.4h-5v5C565.1,614.7,567.4,612.4,570.1,612.4C570.1,612.4,570.1,612.4,570.1,612.4z"/>
<path d="M588.8,617.5v-5h-5C586.5,612.4,588.8,614.7,588.8,617.5z"/>
<path d="M588.8,631.1c0,2.8,2.3,5,5,5h13.6c2.8,0,5-2.3,5-5v-18.6h-23.7V631.1z"/>
<path d="M617.5,612.4h-5v5C612.4,614.7,614.7,612.4,617.5,612.4C617.5,612.4,617.5,612.4,617.5,612.4z"/>
<path d="M636.1,617.5v-5h-5C633.9,612.4,636.1,614.7,636.1,617.5z"/>
<rect x="636.1" y="612.4" width="23.7" height="23.7"/>
<rect x="659.8" y="612.4" width="23.7" height="23.7"/>
<path d="M688.5,636.1c-2.8,0-5-2.3-5-5v5H688.5z"/>
<path d="M238.9,636.1c-2.8,0-5,2.3-5,5c0,0,0,0,0,0v18.6h23.7v-23.7H238.9z"/>
<rect x="257.5" y="636.1" width="23.7" height="23.7"/>
<rect x="281.2" y="636.1" width="23.7" height="23.7"/>
<rect x="304.8" y="636.1" width="23.7" height="23.7"/>
<rect x="328.5" y="636.1" width="23.7" height="23.7"/>
<rect x="352.1" y="636.1" width="23.7" height="23.7"/>
<rect x="375.8" y="636.1" width="23.7" height="23.7"/>
<path d="M404.5,659.8h13.6c2.8,0,5-2.3,5-5v-13.6c0-2.8-2.3-5-5-5h-18.6v23.7H404.5z"/>
<path d="M522.8,636.1h13.6c2.8,0,5,2.3,5,5v13.6c0,2.8-2.3,5-5,5h-13.6c-2.8,0-5-2.3-5-5v-13.6C517.8,638.4,520,636.1,522.8,636.1z"
	/>
<path d="M636.1,654.7c0,2.8,2.3,5,5,5h18.6v-23.7h-23.7V654.7z"/>
<rect x="659.8" y="636.1" width="23.7" height="23.7"/>
<path d="M688.5,659.8h13.6c2.8,0,5-2.3,5-5v-13.6c0-2.8-2.3-5-5-5h-18.6v23.7H688.5z"/>
<rect x="233.8" y="659.8" width="23.7" height="23.7"/>
<rect x="257.5" y="659.8" width="23.7" height="23.7"/>
<path d="M286.2,659.8h-5v5C281.2,662,283.4,659.8,286.2,659.8C286.2,659.8,286.2,659.8,286.2,659.8z"/>
<path d="M304.8,664.8v-5h-5C302.6,659.8,304.8,662,304.8,664.8z"/>
<path d="M286.2,683.4c-2.8,0-5-2.3-5-5v5H286.2z"/>
<path d="M304.8,678.4c0,2.8,2.3,5,5,5h13.6c2.8,0,5-2.3,5-5v-18.6h-23.7V678.4z"/>
<path d="M333.5,659.8h-5v5C328.5,662,330.7,659.8,333.5,659.8C333.5,659.8,333.5,659.8,333.5,659.8z"/>
<path d="M352.1,664.8v-5h-5C349.9,659.8,352.1,662,352.1,664.8z"/>
<path d="M352.1,678.4c0,2.8,2.3,5,5,5h18.6v-23.7h-23.7V678.4z"/>
<rect x="375.8" y="659.8" width="23.7" height="23.7"/>
<path d="M404.5,659.8h-5v5C399.5,662,401.7,659.8,404.5,659.8C404.5,659.8,404.5,659.8,404.5,659.8z"/>
<path d="M465.4,683.4c2.8,0,5-2.3,5-5v5H465.4z"/>
<path d="M475.5,659.8c-2.8,0-5,2.3-5,5c0,0,0,0,0,0v18.6h23.7v-23.7H475.5z"/>
<path d="M499.2,683.4h13.6c2.8,0,5-2.3,5-5v-13.6c0-2.8-2.3-5-5-5h-18.6v23.7H499.2z"/>
<path d="M565.1,678.4v-13.6c0-2.8-2.3-5-5-5h-13.6c-2.8,0-5,2.3-5,5c0,0,0,0,0,0v18.6h23.7V678.4z"/>
<path d="M583.7,683.4c2.8,0,5-2.3,5-5v5H583.7z"/>
<path d="M570.1,683.4c-2.8,0-5-2.3-5-5v5H570.1z"/>
<path d="M593.8,659.8c-2.8,0-5,2.3-5,5c0,0,0,0,0,0v18.6h23.7v-23.7H593.8z"/>
<path d="M617.5,683.4h13.6c2.8,0,5-2.3,5-5v-13.6c0-2.8-2.3-5-5-5h-18.6v23.7H617.5z"/>
<path d="M233.8,702.1c0,2.8,2.3,5,5,5h18.6v-23.7h-23.7V702.1z"/>
<rect x="257.5" y="683.4" width="23.7" height="23.7"/>
<path d="M286.2,707.1h13.6c2.8,0,5-2.3,5-5v-13.6c0-2.8-2.3-5-5-5h-18.6v23.7H286.2z"/>
<path d="M333.5,683.4h13.6c2.8,0,5,2.3,5,5v13.6c0,2.8-2.3,5-5,5h-13.6c-2.8,0-5-2.3-5-5v-13.6C328.5,685.7,330.7,683.4,333.5,683.4
	z"/>
<path d="M375.8,688.5v-5h-5C373.6,683.4,375.8,685.7,375.8,688.5z"/>
<path d="M375.8,702.1c0,2.8,2.3,5,5,5h13.6c2.8,0,5-2.3,5-5v-18.6h-23.7V702.1z"/>
<path d="M441.8,683.4h-13.6c-2.8,0-5,2.3-5,5c0,0,0,0,0,0v13.6c0,2.8,2.3,5,5,5h18.6v-23.7H441.8z"/>
<rect x="446.8" y="683.4" width="23.7" height="23.7"/>
<path d="M494.1,702.1c0,2.8-2.3,5-5,5h-18.6v-23.7h23.7V702.1z"/>
<path d="M499.2,683.4h-5v5C494.1,685.7,496.4,683.4,499.2,683.4C499.2,683.4,499.2,683.4,499.2,683.4z"/>
<path d="M541.5,702.1c0,2.8,2.3,5,5,5h18.6v-23.7h-23.7V702.1z"/>
<rect x="565.1" y="683.4" width="23.7" height="23.7"/>
<path d="M612.4,702.1c0,2.8-2.3,5-5,5h-18.6v-23.7h23.7V702.1z"/>
<path d="M617.5,683.4h-5v5C612.4,685.7,614.7,683.4,617.5,683.4C617.5,683.4,617.5,683.4,617.5,683.4z"/>
<path d="M654.7,683.4h-13.6c-2.8,0-5,2.3-5,5c0,0,0,0,0,0v13.6c0,2.8,2.3,5,5,5h18.6v-23.7H654.7z"/>
<path d="M664.8,707.1h13.6c2.8,0,5-2.3,5-5v-13.6c0-2.8-2.3-5-5-5h-18.6v23.7H664.8z"/>
<path d="M25.9,20.8c-2.8,0-5,2.3-5,5v18.6v23.7v23.7v23.7v23.7v23.7v18.6c0,2.8,2.2,5,5,5h155.6c2.8,0,5-2.2,5-5v-18.6v-23.7v-23.7
	V91.8V68.2V44.5V25.9c0-2.8-2.2-5-5-5C181.5,20.8,25.9,20.8,25.9,20.8z M162.8,68.2v23.7v23.7v23.7v20.8c0,1.6-1.3,2.9-2.9,2.9H47.4
	c-1.6,0-2.9-1.3-2.9-2.9v-20.8v-23.7V91.8V68.2V47.4c0-1.6,1.3-2.9,2.9-2.9h112.5c1.6,0,2.9,1.3,2.9,2.9V68.2z"/>
<path d="M139.2,115.5V91.8V73.2c0-2.8-2.2-5-5-5H73.2c-2.8,0-5,2.2-5,5v18.6v23.7v18.6c0,2.8,2.2,5,5,5h60.9c2.8,0,5-2.2,5-5V115.5z
	"/>
<path d="M546.5,20.8c-2.8,0-5,2.3-5,5v18.6v23.7v23.7v23.7v23.7v23.7v18.6c0,2.8,2.2,5,5,5h155.6c2.8,0,5-2.2,5-5v-18.6v-23.7v-23.7
	V91.8V68.2V44.5V25.9c0-2.8-2.2-5-5-5C702.1,20.8,546.5,20.8,546.5,20.8z M683.4,68.2v23.7v23.7v23.7v20.8c0,1.6-1.3,2.9-2.9,2.9
	H568c-1.6,0-2.9-1.3-2.9-2.9v-20.8v-23.7V91.8V68.2V47.4c0-1.6,1.3-2.9,2.9-2.9h112.5c1.6,0,2.9,1.3,2.9,2.9V68.2z"/>
<path d="M659.8,115.5V91.8V73.2c0-2.8-2.2-5-5-5h-60.9c-2.8,0-5,2.2-5,5v18.6v23.7v18.6c0,2.8,2.2,5,5,5h60.9c2.8,0,5-2.2,5-5V115.5
	z"/>
<path d="M25.9,541.4c-2.8,0-5,2.3-5,5v18.6v23.7v23.7v23.7v23.7v23.7v18.6c0,2.8,2.2,5,5,5h155.6c2.8,0,5-2.2,5-5v-18.6v-23.7v-23.7
	v-23.7v-23.7v-23.7v-18.6c0-2.8-2.2-5-5-5C181.5,541.4,25.9,541.4,25.9,541.4z M162.8,588.8v23.7v23.7v23.7v20.8
	c0,1.6-1.3,2.9-2.9,2.9H47.4c-1.6,0-2.9-1.3-2.9-2.9v-20.8v-23.7v-23.7v-23.7V568c0-1.6,1.3-2.9,2.9-2.9h112.5
	c1.6,0,2.9,1.3,2.9,2.9V588.8z"/>
<path d="M139.2,636.1v-23.7v-18.6c0-2.8-2.2-5-5-5H73.2c-2.8,0-5,2.2-5,5v18.6v23.7v18.6c0,2.8,2.2,5,5,5h60.9c2.8,0,5-2.2,5-5
	V636.1z"/>
<image style="overflow:visible;enable-background:new    ;" width="512" height="512" xlink:href="8A7C7821.png"  transform="matrix(0.4622 0 0 0.4622 245.4505 245.4505)">
</image>
</svg>
